<svg width="21" height="19" viewBox="0 0 21 19" fill="none" xmlns="http://www.w3.org/2000/svg">
<path d="M20.79 0H0.21C0.0945 0 0 0.0971591 0 0.215909V1.94318C0 2.06193 0.0945 2.15909 0.21 2.15909H20.79C20.9055 2.15909 21 2.06193 21 1.94318V0.215909C21 0.0971591 20.9055 0 20.79 0ZM20.79 16.8409H0.21C0.0945 16.8409 0 16.9381 0 17.0568V18.7841C0 18.9028 0.0945 19 0.21 19H20.79C20.9055 19 21 18.9028 21 18.7841V17.0568C21 16.9381 20.9055 16.8409 20.79 16.8409ZM20.79 8.42045H0.21C0.0945 8.42045 0 8.51761 0 8.63636V10.3636C0 10.4824 0.0945 10.5795 0.21 10.5795H20.79C20.9055 10.5795 21 10.4824 21 10.3636V8.63636C21 8.51761 20.9055 8.42045 20.79 8.42045Z" fill="black"/>
</svg>
